<?xml version="1.0" encoding="utf-8"?>
<!-- Generator: Adobe Illustrator 27.2.0, SVG Export Plug-In . SVG Version: 6.00 Build 0)  -->
<svg version="1.1" id="Layer_1" xmlns="http://www.w3.org/2000/svg" xmlns:xlink="http://www.w3.org/1999/xlink" x="0px" y="0px"
	 viewBox="0 0 1000 1000" style="enable-background:new 0 0 1000 1000;" xml:space="preserve">
<style type="text/css">
	.st0{fill:#6B24B2;}
</style>
<path class="st0" d="M709.16,363.57H249.1c-18.19,0-33.06-14.88-33.06-33.06v0c0-18.19,14.88-33.06,33.06-33.06h460.06
	c18.19,0,33.06,14.88,33.06,33.06v0C742.22,348.69,727.35,363.57,709.16,363.57z"/>
<path class="st0" d="M709.16,506.68H249.1c-18.19,0-33.06-14.88-33.06-33.06v0c0-18.19,14.88-33.06,33.06-33.06h460.06
	c18.19,0,33.06,14.88,33.06,33.06v0C742.22,491.8,727.35,506.68,709.16,506.68z"/>
<path class="st0" d="M709.16,649.79H249.1c-18.19,0-33.06-14.88-33.06-33.06v0c0-18.19,14.88-33.06,33.06-33.06h460.06
	c18.19,0,33.06,14.88,33.06,33.06v0C742.22,634.91,727.35,649.79,709.16,649.79z"/>
</svg>
